Coordinates
version=1
nRows=17
nColumns=40
inDegrees=yes

Units are S.I. units (second, meters, Newtons, ...)
If the header above contains a line with 'inDegrees', this indicates whether rotational values are in degrees (yes) or radians (no).

endheader
time	pelvis_tilt	pelvis_list	pelvis_rotation	pelvis_tx	pelvis_ty	pelvis_tz	hip_flexion_r	hip_adduction_r	hip_rotation_r	knee_angle_r	knee_angle_r_beta	ankle_angle_r	subtalar_angle_r	mtp_angle_r	hip_flexion_l	hip_adduction_l	hip_rotation_l	knee_angle_l	knee_angle_l_beta	ankle_angle_l	subtalar_angle_l	mtp_angle_l	lumbar_extension	lumbar_bending	lumbar_rotation	arm_flex_r	arm_add_r	arm_rot_r	elbow_flex_r	pro_sup_r	wrist_flex_r	wrist_dev_r	arm_flex_l	arm_add_l	arm_rot_l	elbow_flex_l	pro_sup_l	wrist_flex_l	wrist_dev_l
      4.05000000	    -18.51509645	      2.33841254	      4.49853220	      0.91014358	      0.97075665	     -0.36861091	     27.18885808	    -11.56297493	     -3.33971391	     98.94139915	      1.72685318	    -22.11070477	      0.00000000	      0.00000000	     36.40070258	      7.08722704	    -11.80231425	     28.19756038	      0.49214027	    -13.78410815	      0.00000000	      0.00000000	      5.95124548	     -4.13899136	      0.44060655	    -26.46451200	    -25.55086110	      0.68193692	     78.42204387	     73.43563648	      0.00000000	      0.00000000	    -25.02792399	    -15.01249698	     -7.79867567	     96.67766487	     71.25040105	      0.00000000	      0.00000000
      4.06000000	    -19.29522669	      3.05158714	      3.86381754	      0.90669635	      0.96706028	     -0.36828682	     32.49520336	    -12.44332374	     -1.52605084	    101.57712518	      1.77285528	    -20.51743206	      0.00000000	      0.00000000	     35.05129958	      7.67066460	    -11.28924696	     28.76826281	      0.50210091	    -10.63598163	      0.00000000	      0.00000000	      6.51538869	     -4.95403245	     -0.40334882	    -27.04680882	    -26.04628805	      1.50094545	     76.89064685	     73.44271887	      0.00000000	      0.00000000	    -23.11207098	    -15.17722326	     -7.57753304	     95.54174651	     71.20605078	      0.00000000	      0.00000000
      4.07000000	    -19.22688396	      2.88131135	      3.80659761	      0.90443578	      0.96672235	     -0.36835032	     36.18452793	    -12.53454916	     -1.08300482	    102.45543703	      1.78818471	    -20.13856269	      0.00000000	      0.00000000	     32.56682190	      7.44558298	    -11.33175001	     29.02007495	      0.50649586	     -9.99125671	      0.00000000	      0.00000000	      6.09189387	     -4.78563629	     -2.04317201	    -28.01074446	    -26.51923100	      1.57438380	     76.45465631	     73.33598095	      0.00000000	      0.00000000	    -21.73012326	    -15.30592069	     -7.64698322	     95.63106799	     71.12733765	      0.00000000	      0.00000000
      4.08000000	    -19.73454851	      3.50534529	      2.65116126	      0.90207405	      0.96666845	     -0.36764456	     41.11331584	    -12.73799036	      0.57612813	    103.23736282	      1.80183189	    -18.87032363	      0.00000000	      0.00000000	     30.21035989	      7.87785449	    -10.94306725	     28.38962388	      0.49549241	     -7.54713904	      0.00000000	      0.00000000	      6.63522581	     -5.28791291	     -2.33404137	    -29.11707259	    -27.22717398	      2.01485214	     77.36624165	     73.22253759	      0.00000000	      0.00000000	    -20.72169009	    -15.11654310	     -8.16205675	     96.66622755	     71.11105159	      0.00000000	      0.00000000
      4.09000000	    -19.55248516	      3.45249140	      2.37027482	      0.90147100	      0.96942519	     -0.36756285	     44.24944195	    -12.79106340	      0.74183359	    102.47937743	      1.78860255	    -18.56537099	      0.00000000	      0.00000000	     27.43409381	      7.58715387	    -10.92274774	     28.86914360	      0.50386161	     -7.51932947	      0.00000000	      0.00000000	      6.78242300	     -5.19769922	     -3.63746871	    -29.91569509	    -27.35280936	      2.00455450	     77.31157156	     73.12228731	      0.00000000	      0.00000000	    -20.13360998	    -15.28264321	     -8.22018522	     96.98976550	     71.04103006	      0.00000000	      0.00000000
      4.10000000	    -20.69811753	      3.10892575	      1.43911050	      0.90131534	      0.97129838	     -0.36827394	     48.58534373	    -11.67711926	      1.51677334	    100.67535937	      1.75711650	    -17.99443532	      0.00000000	      0.00000000	     24.50029282	      7.30993661	    -11.12956381	     25.64588723	      0.44760517	     -7.27886873	      0.00000000	      0.00000000	      8.36318715	     -4.40436576	     -3.97458326	    -32.54142512	    -28.97716253	      1.69898245	     80.41755056	     72.92890631	      0.00000000	      0.00000000	    -20.58273576	    -14.60334674	     -9.13151966	    101.59620309	     71.05214570	      0.00000000	      0.00000000
      4.11000000	    -21.51888531	      2.97569653	      0.42881357	      0.90124912	      0.97448575	     -0.36822875	     52.41650064	    -10.68062014	      2.02566478	     98.53055900	      1.71968267	    -17.92438077	      0.00000000	      0.00000000	     21.73884174	      7.09873132	    -10.83729251	     23.40263089	      0.40845296	     -9.11956576	      0.00000000	      0.00000000	      9.56127229	     -3.87344796	     -4.62458455	    -34.54425838	    -29.91620435	      1.08841395	     83.55612744	     72.64408568	      0.00000000	      0.00000000	    -21.48504349	    -14.09296320	    -10.27630161	    105.18661384	     71.02146270	      0.00000000	      0.00000000
      4.12000000	    -21.89104316	      3.05285659	      0.04255746	      0.90034516	      0.97960669	     -0.36896186	     55.14565748	    -10.44863103	      1.86366833	     95.38753179	      1.66482650	    -17.51230296	      0.00000000	      0.00000000	     19.37510183	      7.13506395	    -10.81393824	     22.88861153	      0.39948163	    -10.05805006	      0.00000000	      0.00000000	     10.08683885	     -3.64608281	     -5.44977259	    -35.59772638	    -30.62212882	      0.74353279	     84.47795616	     72.53520222	      0.00000000	      0.00000000	    -21.18012036	    -14.19621770	    -10.64090781	    106.86523960	     70.99792298	      0.00000000	      0.00000000
      4.13000000	    -23.02701005	      1.76561831	     -0.98650818	      0.90286317	      0.98426638	     -0.36873752	     57.71953748	     -8.72782767	      0.42867941	     91.42989898	      1.59575277	    -17.56610383	      0.00000000	      0.00000000	     16.35014940	      5.77377513	    -10.23430848	     19.01870041	      0.33193894	    -15.41735437	      0.00000000	      0.00000000	     12.03857260	     -1.75335568	     -6.12107528	    -38.38910588	    -31.51088438	     -0.27744964	     88.25170013	     72.30177859	      0.00000000	      0.00000000	    -22.87909224	    -13.06695408	    -11.34593095	    111.86226938	     71.04551091	      0.00000000	      0.00000000
      4.14000000	    -23.36492042	      2.13479009	     -1.39008194	      0.90261268	      0.99047320	     -0.36946996	     59.50689229	     -8.78743426	     -0.08206350	     87.10492697	      1.52026777	    -17.01378591	      0.00000000	      0.00000000	     14.29249548	      6.06837444	    -10.31611627	     18.77690259	      0.32771877	    -16.77597320	      0.00000000	      0.00000000	     12.53364202	     -1.91841302	     -6.71777866	    -39.33910249	    -32.14188151	     -0.70687640	     89.10418390	     72.21155881	      0.00000000	      0.00000000	    -22.78800006	    -13.43180809	    -11.66035285	    113.25142318	     71.02543720	      0.00000000	      0.00000000
      4.15000000	    -24.31561387	      0.23221688	     -2.22666170	      0.90664882	      0.99661002	     -0.36931655	     60.39352291	     -6.77014992	     -2.57340743	     81.47833441	      1.42206520	    -17.11893752	      0.00000000	      0.00000000	     11.32625255	      3.93949997	    -10.48186892	     14.93738991	      0.26070664	    -25.00638209	      0.00000000	      0.00000000	     14.51063263	      0.81262519	     -7.47377266	    -42.10663539	    -32.75970369	     -2.29496963	     92.78622787	     71.95019161	      0.00000000	      0.00000000	    -24.36508114	    -12.35316507	    -11.78676999	    117.81742583	     71.11837219	      0.00000000	      0.00000000
      4.16000000	    -24.57669432	      0.76584466	     -2.51268542	      0.90814490	      1.00300178	     -0.36984272	     61.10417170	     -7.06725575	     -3.45417696	     75.98415113	      1.32617362	    -16.57869139	      0.00000000	      0.00000000	      9.35400100	      4.34018938	    -10.81376485	     14.61863142	      0.25514325	    -26.71461079	      0.00000000	      0.00000000	     15.24771436	      0.46397915	     -7.81265683	    -43.40340091	    -32.93637946	     -2.63690065	     93.80185552	     71.85997121	      0.00000000	      0.00000000	    -24.74100726	    -12.71532595	    -11.96627365	    119.38584172	     71.11815712	      0.00000000	      0.00000000
      4.17000000	    -25.01011836	      0.82293479	     -2.80279884	      0.91042332	      1.00884160	     -0.37003402	     61.40517696	     -6.85814841	     -4.97719960	     69.85401845	      1.21918262	    -16.23068935	      0.00000000	      0.00000000	      7.45169696	      4.25822518	    -11.10542658	     13.70662964	      0.23922582	    -29.66574861	      0.00000000	      0.00000000	     16.25405148	      0.64847776	     -8.17811333	    -45.00605885	    -32.92890634	     -3.10807271	     95.35103998	     71.76508540	      0.00000000	      0.00000000	    -25.49718860	    -12.92039674	    -11.96791139	    121.86554901	     71.15328877	      0.00000000	      0.00000000
      4.18000000	    -25.67436378	     -1.49905560	     -3.52540758	      0.91395979	      1.01448196	     -0.36914696	     60.87174786	     -4.20560654	     -7.84269800	     62.71992875	      1.09466926	    -17.26031906	      0.00000000	      0.00000000	      5.01024283	      1.54176880	    -11.45916073	     11.07342846	      0.19326779	    -35.77237296	      0.00000000	      0.00000000	     17.43652967	      3.77429614	     -8.93396480	    -47.24389264	    -32.94508904	     -4.99322288	     98.28047379	     71.47922576	      0.00000000	      0.00000000	    -26.44940674	    -12.25453885	    -11.33525656	    125.24405821	     71.28708843	      0.00000000	      0.00000000
      4.19000000	    -25.71860428	     -0.38205923	     -3.88478156	      0.91608945	      1.01881615	     -0.36963421	     60.64276393	     -4.74685647	     -9.30088263	     56.66026855	      0.98890824	    -16.82306176	      0.00000000	      0.00000000	      3.44590946	      2.61235191	    -11.61498171	     11.22123823	      0.19584755	    -36.59720126	      0.00000000	      0.00000000	     17.83447007	      2.85670294	     -8.62133019	    -48.57241382	    -33.15758330	     -5.42555398	     99.30684260	     71.42875017	      0.00000000	      0.00000000	    -27.37538840	    -12.89552458	    -11.53788403	    126.47829546	     71.33097099	      0.00000000	      0.00000000
      4.20000000	    -25.85548796	      0.20180788	     -3.84928435	      0.91868709	      1.02298940	     -0.36951880	     59.70007707	     -4.49303796	    -10.47899438	     49.42701092	      0.86266408	    -16.89006787	      0.00000000	      0.00000000	      1.96771668	      3.04737651	    -11.37032375	     11.15670000	      0.19472115	    -37.74778883	      0.00000000	      0.00000000	     18.50511958	      2.30472038	     -8.83195807	    -49.66919450	    -32.49126995	     -5.78797305	    101.01213999	     71.36632785	      0.00000000	      0.00000000	    -28.05359124	    -13.29048481	    -11.50203495	    128.49644684	     71.39789385	      0.00000000	      0.00000000
      4.21000000	    -25.65173419	     -2.43165426	     -4.26773173	      0.92136447	      1.02828061	     -0.36910062	     56.69852818	     -0.91066077	    -12.57862832	     39.37151478	      0.68716256	    -21.09227556	      0.00000000	      0.00000000	      0.13381240	      0.04621803	     -9.26960485	     11.50594349	      0.20081660	    -38.11771825	      0.00000000	      0.00000000	     18.35752799	      5.78358963	     -9.43311481	    -50.75339177	    -31.99020456	     -7.73990116	    102.84478193	     70.97866050	      0.00000000	      0.00000000	    -28.03811541	    -13.11980235	    -10.33595983	    129.69184966	     71.49926812	      0.00000000	      0.00000000
